<mxfile host="app.diagrams.net" modified="2021-05-17T03:28:30.684Z" agent="5.0 (Macintosh; Intel Mac OS X 10_15_7) AppleWebKit/537.36 (KHTML, like Gecko) Chrome/90.0.4430.212 Safari/537.36" etag="VmeffMdM93-WaEW3-e4c" version="14.5.10" type="github">
  <diagram id="kWoweH7GBX4tCVKelEht" name="Page-1">
    <mxGraphModel dx="749" dy="459" grid="1" gridSize="10" guides="1" tooltips="1" connect="1" arrows="1" fold="1" page="1" pageScale="1" pageWidth="850" pageHeight="1100" math="0" shadow="0">
      <root>
        <mxCell id="0" />
        <mxCell id="1" parent="0" />
        <mxCell id="TmmA3PbGwimCp0-5Gazk-1" value="stuff" style="whiteSpace=wrap;html=1;aspect=fixed;" vertex="1" parent="1">
          <mxGeometry x="100" y="60" width="80" height="80" as="geometry" />
        </mxCell>
        <mxCell id="TmmA3PbGwimCp0-5Gazk-2" value="some other stuff" style="rhombus;whiteSpace=wrap;html=1;" vertex="1" parent="1">
          <mxGeometry x="280" y="280" width="80" height="80" as="geometry" />
        </mxCell>
      </root>
    </mxGraphModel>
  </diagram>
</mxfile>
